<svg width="24" height="25" viewBox="0 0 24 25" fill="none" xmlns="http://www.w3.org/2000/svg">
<path d="M8 7.60336V3.60336M16 7.60336V3.60336M7 11.6034H17M5 21.6034H19C19.5304 21.6034 20.0391 21.3926 20.4142 21.0176C20.7893 20.6425 21 20.1338 21 19.6034V7.60336C21 7.07293 20.7893 6.56422 20.4142 6.18915C20.0391 5.81408 19.5304 5.60336 19 5.60336H5C4.46957 5.60336 3.96086 5.81408 3.58579 6.18915C3.21071 6.56422 3 7.07293 3 7.60336V19.6034C3 20.1338 3.21071 20.6425 3.58579 21.0176C3.96086 21.3926 4.46957 21.6034 5 21.6034Z" stroke="#555555" stroke-width="2" stroke-linecap="round" stroke-linejoin="round"/>
</svg>
