<svg width="24" height="25" viewBox="0 0 24 25" fill="none" xmlns="http://www.w3.org/2000/svg">
<g clip-path="url(#clip0_10679_56824)">
<path d="M24 12.6034C24 5.97597 18.6274 0.603394 12 0.603394C5.37258 0.603394 0 5.97597 0 12.6034C0 18.5928 4.3882 23.5574 10.125 24.4576V16.0721H7.07812V12.6034H10.125V9.95964C10.125 6.95214 11.9166 5.29089 14.6576 5.29089C15.9701 5.29089 17.3438 5.52527 17.3438 5.52527V8.47839H15.8306C14.34 8.47839 13.875 9.40347 13.875 10.3534V12.6034H17.2031L16.6711 16.0721H13.875V24.4576C19.6118 23.5574 24 18.5928 24 12.6034Z" fill="#1877F2"/>
</g>
<defs>
<clipPath id="clip0_10679_56824">
<rect width="24" height="24" fill="white" transform="translate(0 0.603394)"/>
</clipPath>
</defs>
</svg>
