<svg width="24" height="25" viewBox="0 0 24 25" fill="none" xmlns="http://www.w3.org/2000/svg">
<g clip-path="url(#clip0_10679_56828)">
<path d="M12 2.76433C15.2063 2.76433 15.5859 2.77839 16.8469 2.83464C18.0188 2.88621 18.6516 3.08308 19.0734 3.24714C19.6313 3.46277 20.0344 3.72527 20.4516 4.14246C20.8734 4.56433 21.1313 4.96277 21.3469 5.52058C21.5109 5.94246 21.7078 6.57996 21.7594 7.74714C21.8156 9.01277 21.8297 9.39246 21.8297 12.594C21.8297 15.8003 21.8156 16.18 21.7594 17.4409C21.7078 18.6128 21.5109 19.2456 21.3469 19.6675C21.1313 20.2253 20.8687 20.6284 20.4516 21.0456C20.0297 21.4675 19.6313 21.7253 19.0734 21.9409C18.6516 22.105 18.0141 22.3018 16.8469 22.3534C15.5813 22.4096 15.2016 22.4237 12 22.4237C8.79375 22.4237 8.41406 22.4096 7.15313 22.3534C5.98125 22.3018 5.34844 22.105 4.92656 21.9409C4.36875 21.7253 3.96563 21.4628 3.54844 21.0456C3.12656 20.6237 2.86875 20.2253 2.65313 19.6675C2.48906 19.2456 2.29219 18.6081 2.24063 17.4409C2.18438 16.1753 2.17031 15.7956 2.17031 12.594C2.17031 9.38777 2.18438 9.00808 2.24063 7.74714C2.29219 6.57527 2.48906 5.94246 2.65313 5.52058C2.86875 4.96277 3.13125 4.55964 3.54844 4.14246C3.97031 3.72058 4.36875 3.46277 4.92656 3.24714C5.34844 3.08308 5.98594 2.88621 7.15313 2.83464C8.41406 2.77839 8.79375 2.76433 12 2.76433ZM12 0.603394C8.74219 0.603394 8.33438 0.617456 7.05469 0.673706C5.77969 0.729956 4.90313 0.936206 4.14375 1.23152C3.35156 1.54089 2.68125 1.94871 2.01563 2.61902C1.34531 3.28464 0.9375 3.95496 0.628125 4.74246C0.332812 5.50652 0.126563 6.37839 0.0703125 7.65339C0.0140625 8.93777 0 9.34558 0 12.6034C0 15.8612 0.0140625 16.269 0.0703125 17.5487C0.126563 18.8237 0.332812 19.7003 0.628125 20.4596C0.9375 21.2518 1.34531 21.9221 2.01563 22.5878C2.68125 23.2534 3.35156 23.6659 4.13906 23.9706C4.90313 24.2659 5.775 24.4721 7.05 24.5284C8.32969 24.5846 8.7375 24.5987 11.9953 24.5987C15.2531 24.5987 15.6609 24.5846 16.9406 24.5284C18.2156 24.4721 19.0922 24.2659 19.8516 23.9706C20.6391 23.6659 21.3094 23.2534 21.975 22.5878C22.6406 21.9221 23.0531 21.2518 23.3578 20.4643C23.6531 19.7003 23.8594 18.8284 23.9156 17.5534C23.9719 16.2737 23.9859 15.8659 23.9859 12.6081C23.9859 9.35027 23.9719 8.94246 23.9156 7.66277C23.8594 6.38777 23.6531 5.51121 23.3578 4.75183C23.0625 3.95496 22.6547 3.28464 21.9844 2.61902C21.3188 1.95339 20.6484 1.54089 19.8609 1.23621C19.0969 0.940894 18.225 0.734644 16.95 0.678394C15.6656 0.617456 15.2578 0.603394 12 0.603394Z" fill="url(#paint0_linear_10679_56828)"/>
<path d="M12 6.43933C8.59687 6.43933 5.83594 9.20027 5.83594 12.6034C5.83594 16.0065 8.59687 18.7675 12 18.7675C15.4031 18.7675 18.1641 16.0065 18.1641 12.6034C18.1641 9.20027 15.4031 6.43933 12 6.43933ZM12 16.6018C9.79219 16.6018 8.00156 14.8112 8.00156 12.6034C8.00156 10.3956 9.79219 8.60496 12 8.60496C14.2078 8.60496 15.9984 10.3956 15.9984 12.6034C15.9984 14.8112 14.2078 16.6018 12 16.6018Z" fill="url(#paint1_linear_10679_56828)"/>
<path d="M19.8469 6.19553C19.8469 6.99241 19.2 7.6346 18.4078 7.6346C17.6109 7.6346 16.9688 6.98772 16.9688 6.19553C16.9688 5.39866 17.6156 4.75647 18.4078 4.75647C19.2 4.75647 19.8469 5.40335 19.8469 6.19553Z" fill="url(#paint2_linear_10679_56828)"/>
</g>
<defs>
<linearGradient id="paint0_linear_10679_56828" x1="11.993" y1="0.603394" x2="11.993" y2="24.5987" gradientUnits="userSpaceOnUse">
<stop stop-color="#833AB4"/>
<stop offset="0.5" stop-color="#FD1D1D"/>
<stop offset="1" stop-color="#FCAF45"/>
</linearGradient>
<linearGradient id="paint1_linear_10679_56828" x1="12" y1="6.43933" x2="12" y2="18.7675" gradientUnits="userSpaceOnUse">
<stop stop-color="#833AB4"/>
<stop offset="0.5" stop-color="#FD1D1D"/>
<stop offset="1" stop-color="#FCAF45"/>
</linearGradient>
<linearGradient id="paint2_linear_10679_56828" x1="18.4078" y1="4.75647" x2="18.4078" y2="7.6346" gradientUnits="userSpaceOnUse">
<stop stop-color="#833AB4"/>
<stop offset="0.5" stop-color="#FD1D1D"/>
<stop offset="1" stop-color="#FCAF45"/>
</linearGradient>
<clipPath id="clip0_10679_56828">
<rect width="24" height="24" fill="white" transform="translate(0 0.603394)"/>
</clipPath>
</defs>
</svg>
