<svg width="20" height="17" viewBox="0 0 20 17" fill="none" xmlns="http://www.w3.org/2000/svg">
<path d="M1 4.60339L8.89 9.86339C9.21866 10.0827 9.6049 10.1997 10 10.1997C10.3951 10.1997 10.7813 10.0827 11.11 9.86339L19 4.60339M3 15.6034H17C17.5304 15.6034 18.0391 15.3927 18.4142 15.0176C18.7893 14.6425 19 14.1338 19 13.6034V3.60339C19 3.07296 18.7893 2.56425 18.4142 2.18918C18.0391 1.81411 17.5304 1.60339 17 1.60339H3C2.46957 1.60339 1.96086 1.81411 1.58579 2.18918C1.21071 2.56425 1 3.07296 1 3.60339V13.6034C1 14.1338 1.21071 14.6425 1.58579 15.0176C1.96086 15.3927 2.46957 15.6034 3 15.6034Z" stroke="#353535" stroke-width="2" stroke-linecap="round" stroke-linejoin="round"/>
</svg>
