<svg width="24" height="25" viewBox="0 0 24 25" fill="none" xmlns="http://www.w3.org/2000/svg">
<path d="M22.2234 0.603394H1.77187C0.792187 0.603394 0 1.37683 0 2.33308V22.869C0 23.8253 0.792187 24.6034 1.77187 24.6034H22.2234C23.2031 24.6034 24 23.8253 24 22.8737V2.33308C24 1.37683 23.2031 0.603394 22.2234 0.603394ZM7.12031 21.055H3.55781V9.59871H7.12031V21.055ZM5.33906 8.03777C4.19531 8.03777 3.27188 7.11433 3.27188 5.97527C3.27188 4.83621 4.19531 3.91277 5.33906 3.91277C6.47813 3.91277 7.40156 4.83621 7.40156 5.97527C7.40156 7.10964 6.47813 8.03777 5.33906 8.03777ZM20.4516 21.055H16.8937V15.4862C16.8937 14.1596 16.8703 12.4487 15.0422 12.4487C13.1906 12.4487 12.9094 13.8971 12.9094 15.3925V21.055H9.35625V9.59871H12.7687V11.1643H12.8156C13.2891 10.2643 14.4516 9.31277 16.1813 9.31277C19.7859 9.31277 20.4516 11.6846 20.4516 14.769V21.055Z" fill="#0077B5"/>
</svg>
