<svg width="46" height="47" viewBox="0 0 46 47" fill="none" xmlns="http://www.w3.org/2000/svg">
<rect x="1" y="1.88037" width="44" height="44" rx="5" fill="#581C87"/>
<rect x="1" y="1.88037" width="44" height="44" rx="5" stroke="white" stroke-width="2"/>
<path d="M14 23.8804L16 21.8804M16 21.8804L23 14.8804L30 21.8804M16 21.8804V31.8804C16 32.1456 16.1054 32.3999 16.2929 32.5875C16.4804 32.775 16.7348 32.8804 17 32.8804H20M30 21.8804L32 23.8804M30 21.8804V31.8804C30 32.1456 29.8946 32.3999 29.7071 32.5875C29.5196 32.775 29.2652 32.8804 29 32.8804H26M20 32.8804C20.2652 32.8804 20.5196 32.775 20.7071 32.5875C20.8946 32.3999 21 32.1456 21 31.8804V27.8804C21 27.6152 21.1054 27.3608 21.2929 27.1733C21.4804 26.9857 21.7348 26.8804 22 26.8804H24C24.2652 26.8804 24.5196 26.9857 24.7071 27.1733C24.8946 27.3608 25 27.6152 25 27.8804V31.8804C25 32.1456 25.1054 32.3999 25.2929 32.5875C25.4804 32.775 25.7348 32.8804 26 32.8804M20 32.8804H26" stroke="white" stroke-width="2" stroke-linecap="round" stroke-linejoin="round"/>
</svg>
