<svg width="20" height="21" viewBox="0 0 20 21" fill="none" xmlns="http://www.w3.org/2000/svg">
<path d="M1.58579 2.18918C1.21071 2.56425 1 3.07296 1 3.60339V4.60339C1 12.8874 7.716 19.6034 16 19.6034H17C17.5304 19.6034 18.0391 19.3927 18.4142 19.0176C18.7893 18.6425 19 18.1338 19 17.6034V14.3244C19.0001 14.1144 18.934 13.9098 18.8112 13.7394C18.6885 13.5691 18.5152 13.4417 18.316 13.3754L13.823 11.8774C13.5947 11.8015 13.3466 11.8105 13.1244 11.9027C12.9021 11.9949 12.7205 12.1641 12.613 12.3794L11.483 14.6364C9.03446 13.5301 7.07332 11.5689 5.967 9.12039L8.224 7.99039C8.43925 7.88285 8.60851 7.70129 8.70072 7.47904C8.79293 7.25678 8.8019 7.00873 8.726 6.78039L7.228 2.28739C7.16171 2.08835 7.03449 1.9152 6.86436 1.79244C6.69422 1.66969 6.48979 1.60355 6.28 1.60339H3C2.46957 1.60339 1.96086 1.81411 1.58579 2.18918Z" stroke="#353535" stroke-width="2" stroke-linecap="round" stroke-linejoin="round"/>
</svg>
