<svg width="20" height="21" viewBox="0 0 20 21" fill="none" xmlns="http://www.w3.org/2000/svg">
<path d="M10 6.60336V10.6034L13 13.6034M19 10.6034C19 11.7853 18.7672 12.9556 18.3149 14.0475C17.8626 15.1394 17.1997 16.1316 16.364 16.9673C15.5282 17.8031 14.5361 18.466 13.4442 18.9183C12.3522 19.3706 11.1819 19.6034 10 19.6034C8.8181 19.6034 7.64778 19.3706 6.55585 18.9183C5.46392 18.466 4.47177 17.8031 3.63604 16.9673C2.80031 16.1316 2.13738 15.1394 1.68508 14.0475C1.23279 12.9556 1 11.7853 1 10.6034C1 8.21641 1.94821 5.92723 3.63604 4.2394C5.32387 2.55157 7.61305 1.60336 10 1.60336C12.3869 1.60336 14.6761 2.55157 16.364 4.2394C18.0518 5.92723 19 8.21641 19 10.6034Z" stroke="#555555" stroke-width="2" stroke-linecap="round" stroke-linejoin="round"/>
</svg>
