<svg width="163" height="65" viewBox="0 0 163 65" fill="none" xmlns="http://www.w3.org/2000/svg">
<rect y="0.854004" width="163" height="64" rx="5" fill="#581C87"/>
<rect x="10" y="10.854" width="44" height="44" rx="5" fill="#581C87"/>
<rect x="10" y="10.854" width="44" height="44" rx="5" stroke="white" stroke-width="2"/>
<path d="M23 32.854L25 30.854M25 30.854L32 23.854L39 30.854M25 30.854V40.854C25 41.1192 25.1054 41.3736 25.2929 41.5611C25.4804 41.7486 25.7348 41.854 26 41.854H29M39 30.854L41 32.854M39 30.854V40.854C39 41.1192 38.8946 41.3736 38.7071 41.5611C38.5196 41.7486 38.2652 41.854 38 41.854H35M29 41.854C29.2652 41.854 29.5196 41.7486 29.7071 41.5611C29.8946 41.3736 30 41.1192 30 40.854V36.854C30 36.5888 30.1054 36.3344 30.2929 36.1469C30.4804 35.9594 30.7348 35.854 31 35.854H33C33.2652 35.854 33.5196 35.9594 33.7071 36.1469C33.8946 36.3344 34 36.5888 34 36.854V40.854C34 41.1192 34.1054 41.3736 34.2929 41.5611C34.4804 41.7486 34.7348 41.854 35 41.854M29 41.854H35" stroke="white" stroke-width="2" stroke-linecap="round" stroke-linejoin="round"/>
<path d="M77.61 26.494L71.77 40.854H69.86L64.02 26.494H65.72C65.9067 26.494 66.0567 26.5407 66.17 26.634C66.29 26.7273 66.38 26.8473 66.44 26.994L70.32 36.754C70.4133 36.994 70.5033 37.2573 70.59 37.544C70.6833 37.8307 70.7667 38.1307 70.84 38.444C70.9067 38.1307 70.98 37.8307 71.06 37.544C71.14 37.2573 71.2267 36.994 71.32 36.754L75.19 26.994C75.2367 26.8607 75.32 26.744 75.44 26.644C75.5667 26.544 75.72 26.494 75.9 26.494H77.61ZM81.0428 30.694V40.854H79.0928V30.694H81.0428ZM81.4128 27.554C81.4128 27.734 81.3761 27.9073 81.3028 28.074C81.2295 28.234 81.1295 28.3773 81.0028 28.504C80.8828 28.624 80.7395 28.7207 80.5728 28.794C80.4061 28.8607 80.2328 28.894 80.0528 28.894C79.8728 28.894 79.7028 28.8607 79.5428 28.794C79.3828 28.7207 79.2395 28.624 79.1128 28.504C78.9928 28.3773 78.8961 28.234 78.8228 28.074C78.7561 27.9073 78.7228 27.734 78.7228 27.554C78.7228 27.3673 78.7561 27.194 78.8228 27.034C78.8961 26.8673 78.9928 26.724 79.1128 26.604C79.2395 26.4773 79.3828 26.3807 79.5428 26.314C79.7028 26.2407 79.8728 26.204 80.0528 26.204C80.2328 26.204 80.4061 26.2407 80.5728 26.314C80.7395 26.3807 80.8828 26.4773 81.0028 26.604C81.1295 26.724 81.2295 26.8673 81.3028 27.034C81.3761 27.194 81.4128 27.3673 81.4128 27.554ZM90.5961 34.644C90.5961 34.2573 90.5394 33.9007 90.4261 33.574C90.3194 33.2473 90.1594 32.964 89.9461 32.724C89.7328 32.484 89.4728 32.2973 89.1661 32.164C88.8594 32.0307 88.5061 31.964 88.1061 31.964C87.2861 31.964 86.6394 32.2007 86.1661 32.674C85.6994 33.1473 85.4028 33.804 85.2761 34.644H90.5961ZM92.2061 39.404C91.9661 39.684 91.6894 39.9273 91.3761 40.134C91.0628 40.334 90.7294 40.4973 90.3761 40.624C90.0228 40.7507 89.6561 40.844 89.2761 40.904C88.9028 40.964 88.5328 40.994 88.1661 40.994C87.4661 40.994 86.8161 40.8773 86.2161 40.644C85.6228 40.404 85.1061 40.0573 84.6661 39.604C84.2328 39.144 83.8928 38.5773 83.6461 37.904C83.4061 37.224 83.2861 36.444 83.2861 35.564C83.2861 34.8573 83.3961 34.2007 83.6161 33.594C83.8361 32.9807 84.1494 32.4473 84.5561 31.994C84.9694 31.5407 85.4728 31.184 86.0661 30.924C86.6594 30.664 87.3261 30.534 88.0661 30.534C88.6861 30.534 89.2561 30.6373 89.7761 30.844C90.3028 31.044 90.7561 31.3373 91.1361 31.724C91.5161 32.1107 91.8128 32.5873 92.0261 33.154C92.2461 33.7207 92.3561 34.3673 92.3561 35.094C92.3561 35.394 92.3228 35.5973 92.2561 35.704C92.1894 35.804 92.0661 35.854 91.8861 35.854H85.2261C85.2461 36.4607 85.3328 36.9907 85.4861 37.444C85.6394 37.8907 85.8494 38.264 86.1161 38.564C86.3894 38.864 86.7128 39.0873 87.0861 39.234C87.4594 39.3807 87.8761 39.454 88.3361 39.454C88.7694 39.454 89.1428 39.404 89.4561 39.304C89.7761 39.204 90.0494 39.0973 90.2761 38.984C90.5094 38.864 90.7028 38.754 90.8561 38.654C91.0161 38.554 91.1561 38.504 91.2761 38.504C91.4361 38.504 91.5594 38.564 91.6461 38.684L92.2061 39.404ZM108.465 30.694L105.195 40.854H103.635C103.448 40.854 103.322 40.7307 103.255 40.484L101.115 33.864C101.062 33.6973 101.015 33.534 100.975 33.374C100.935 33.2073 100.898 33.0407 100.865 32.874C100.805 33.2207 100.722 33.5573 100.615 33.884L98.4448 40.484C98.3782 40.7307 98.2348 40.854 98.0148 40.854H96.5348L93.2548 30.694H94.7948C94.9482 30.694 95.0748 30.7307 95.1748 30.804C95.2815 30.8773 95.3515 30.9707 95.3848 31.084L97.2148 37.324C97.2748 37.5773 97.3282 37.824 97.3748 38.064C97.4215 38.304 97.4648 38.544 97.5048 38.784C97.5648 38.544 97.6282 38.304 97.6948 38.064C97.7682 37.824 97.8415 37.5773 97.9148 37.324L99.9448 31.044C99.9782 30.9307 100.042 30.8407 100.135 30.774C100.228 30.7007 100.342 30.664 100.475 30.664H101.325C101.472 30.664 101.592 30.7007 101.685 30.774C101.785 30.8407 101.852 30.9307 101.885 31.044L103.865 37.324C103.938 37.5773 104.008 37.8273 104.075 38.074C104.142 38.314 104.202 38.5573 104.255 38.804C104.295 38.564 104.342 38.324 104.395 38.084C104.448 37.8373 104.508 37.584 104.575 37.324L106.435 31.084C106.468 30.9707 106.535 30.8773 106.635 30.804C106.742 30.7307 106.862 30.694 106.995 30.694H108.465ZM130.265 26.494V40.854H128.405V30.634C128.405 30.4807 128.408 30.3173 128.415 30.144C128.428 29.9707 128.441 29.794 128.455 29.614L123.675 38.384C123.508 38.7107 123.251 38.874 122.905 38.874H122.605C122.258 38.874 122.005 38.7107 121.845 38.384L116.975 29.584C117.015 29.9573 117.035 30.3073 117.035 30.634V40.854H115.165V26.494H116.745C116.931 26.494 117.075 26.514 117.175 26.554C117.281 26.5873 117.381 26.6873 117.475 26.854L122.275 35.454C122.368 35.6273 122.455 35.8107 122.535 36.004C122.615 36.1973 122.691 36.3907 122.765 36.584C122.905 36.1907 123.068 35.8107 123.255 35.444L127.965 26.854C128.051 26.6873 128.145 26.5873 128.245 26.554C128.351 26.514 128.498 26.494 128.685 26.494H130.265ZM138.584 36.344C137.791 36.3707 137.117 36.434 136.564 36.534C136.011 36.6273 135.561 36.754 135.214 36.914C134.867 37.074 134.617 37.264 134.464 37.484C134.311 37.6973 134.234 37.9373 134.234 38.204C134.234 38.4573 134.274 38.6773 134.354 38.864C134.441 39.044 134.554 39.194 134.694 39.314C134.841 39.4273 135.011 39.5107 135.204 39.564C135.397 39.6173 135.607 39.644 135.834 39.644C136.134 39.644 136.407 39.614 136.654 39.554C136.907 39.494 137.144 39.4107 137.364 39.304C137.584 39.1907 137.794 39.054 137.994 38.894C138.194 38.734 138.391 38.5507 138.584 38.344V36.344ZM132.864 32.114C133.431 31.574 134.044 31.1707 134.704 30.904C135.371 30.6373 136.101 30.504 136.894 30.504C137.474 30.504 137.987 30.6007 138.434 30.794C138.881 30.9807 139.257 31.244 139.564 31.584C139.871 31.924 140.101 32.3307 140.254 32.804C140.414 33.2773 140.494 33.8007 140.494 34.374V40.854H139.624C139.431 40.854 139.284 40.824 139.184 40.764C139.084 40.6973 139.004 40.5773 138.944 40.404L138.734 39.514C138.474 39.754 138.217 39.9673 137.964 40.154C137.711 40.334 137.444 40.4907 137.164 40.624C136.891 40.7507 136.597 40.8473 136.284 40.914C135.971 40.9807 135.624 41.014 135.244 41.014C134.844 41.014 134.467 40.9607 134.114 40.854C133.767 40.7407 133.464 40.5707 133.204 40.344C132.944 40.1173 132.737 39.834 132.584 39.494C132.437 39.154 132.364 38.7573 132.364 38.304C132.364 37.904 132.471 37.5207 132.684 37.154C132.904 36.7807 133.257 36.4473 133.744 36.154C134.237 35.8607 134.877 35.6207 135.664 35.434C136.457 35.2473 137.431 35.1407 138.584 35.114V34.374C138.584 33.6073 138.421 33.034 138.094 32.654C137.767 32.274 137.287 32.084 136.654 32.084C136.227 32.084 135.867 32.1373 135.574 32.244C135.287 32.3507 135.037 32.4707 134.824 32.604C134.617 32.7307 134.434 32.8473 134.274 32.954C134.121 33.0607 133.961 33.114 133.794 33.114C133.661 33.114 133.544 33.0773 133.444 33.004C133.351 32.9307 133.274 32.844 133.214 32.744L132.864 32.114ZM145.054 38.354C145.374 38.774 145.718 39.0673 146.084 39.234C146.458 39.4007 146.874 39.484 147.334 39.484C148.228 39.484 148.918 39.164 149.404 38.524C149.898 37.8773 150.144 36.9373 150.144 35.704C150.144 35.0573 150.088 34.5073 149.974 34.054C149.868 33.594 149.708 33.2207 149.494 32.934C149.288 32.6407 149.031 32.4273 148.724 32.294C148.418 32.154 148.071 32.084 147.684 32.084C147.118 32.084 146.624 32.2107 146.204 32.464C145.791 32.7173 145.408 33.0773 145.054 33.544V38.354ZM144.954 32.214C145.168 31.9607 145.394 31.7307 145.634 31.524C145.881 31.3107 146.144 31.1307 146.424 30.984C146.704 30.8307 147.001 30.714 147.314 30.634C147.634 30.5473 147.974 30.504 148.334 30.504C148.914 30.504 149.438 30.6173 149.904 30.844C150.378 31.0707 150.781 31.404 151.114 31.844C151.448 32.284 151.704 32.8273 151.884 33.474C152.071 34.1207 152.164 34.864 152.164 35.704C152.164 36.4573 152.061 37.1573 151.854 37.804C151.654 38.444 151.364 39.0007 150.984 39.474C150.611 39.9473 150.151 40.3207 149.604 40.594C149.064 40.8607 148.454 40.994 147.774 40.994C147.168 40.994 146.648 40.894 146.214 40.694C145.781 40.494 145.394 40.214 145.054 39.854V44.264H143.104V30.694H144.274C144.548 30.694 144.718 30.824 144.784 31.084L144.954 32.214Z" fill="#F8EBFF"/>
</svg>
