<svg width="22" height="23" viewBox="0 0 22 23" fill="none" xmlns="http://www.w3.org/2000/svg">
<g clip-path="url(#clip0_10574_24512)">
<path d="M11.014 0.603394C4.95677 0.603394 0.0258353 5.53009 0.0236351 11.5873C0.022535 13.5235 0.529667 15.4137 1.49116 17.0792L0 22.6055L5.75623 21.2454C7.36128 22.1211 9.16814 22.5808 11.0075 22.5819H11.0118C17.0679 22.5819 21.9967 17.6541 22 11.598C22.0022 8.66183 20.8604 5.90122 18.7856 3.82422C16.7108 1.74831 13.9535 0.604494 11.014 0.603394ZM11.0118 2.80361C13.3616 2.80471 15.5699 3.72087 17.23 5.37984C18.8901 7.041 19.802 9.24824 19.7998 11.5959C19.7976 16.4407 15.8567 20.3817 11.0097 20.3817C9.54322 20.3806 8.09064 20.0124 6.81121 19.3138L6.06993 18.9099L5.25129 19.1032L3.08546 19.6146L3.61402 17.6508L3.85252 16.7698L3.39701 15.9791C2.62914 14.6502 2.22275 13.1307 2.22385 11.5873C2.22605 6.74461 6.16804 2.80361 11.0118 2.80361ZM7.12491 6.51647C6.9412 6.51647 6.64415 6.58523 6.39222 6.86025C6.1403 7.13418 5.42963 7.79763 5.42963 9.14856C5.42963 10.4995 6.41371 11.8054 6.55122 11.9891C6.68764 12.1717 8.45075 15.0316 11.2417 16.1317C13.5607 17.0459 14.0317 16.8654 14.5356 16.8192C15.0394 16.7741 16.1611 16.1564 16.3899 15.515C16.6187 14.8736 16.6192 14.3219 16.551 14.2086C16.4828 14.0942 16.2996 14.026 16.0246 13.8885C15.7507 13.751 14.4008 13.0881 14.1488 12.9968C13.8969 12.9055 13.7126 12.8593 13.53 13.1343C13.3474 13.4093 12.8226 14.026 12.662 14.2086C12.5014 14.3923 12.3418 14.417 12.0668 14.2795C11.7918 14.1409 10.9075 13.8502 9.85799 12.9151C9.04171 12.188 8.49092 11.2908 8.3303 11.0157C8.17079 10.7418 8.31526 10.5914 8.45278 10.4549C8.57599 10.3317 8.72565 10.1343 8.86317 9.97364C8.99958 9.81303 9.04689 9.6986 9.1382 9.51598C9.2295 9.33336 9.18277 9.1722 9.11456 9.03469C9.04635 8.89717 8.51222 7.54122 8.26799 6.99777C8.06227 6.54122 7.845 6.53062 7.64918 6.52292C7.48967 6.51632 7.30753 6.51647 7.12491 6.51647Z" fill="white"/>
</g>
<defs>
<clipPath id="clip0_10574_24512">
<rect width="22" height="22" fill="white" transform="translate(0 0.603394)"/>
</clipPath>
</defs>
</svg>
