<svg width="23" height="23" viewBox="0 0 23 23" fill="none" xmlns="http://www.w3.org/2000/svg">
<g clip-path="url(#clip0_10574_24610)">
<path d="M11.514 0.854004C5.45677 0.854004 0.525835 5.7807 0.523635 11.8379C0.522535 13.7741 1.02967 15.6643 1.99116 17.3298L0.5 22.8561L6.25623 21.4961C7.86128 22.3717 9.66814 22.8314 11.5075 22.8325H11.5118C17.5679 22.8325 22.4967 17.9047 22.5 11.8486C22.5022 8.91244 21.3604 6.15183 19.2856 4.07483C17.2108 1.99892 14.4535 0.855104 11.514 0.854004ZM11.5118 3.05422C13.8616 3.05532 16.0699 3.97148 17.73 5.63045C19.3901 7.29161 20.302 9.49885 20.2998 11.8465C20.2976 16.6914 16.3567 20.6323 11.5097 20.6323C10.0432 20.6312 8.59064 20.263 7.31121 19.5644L6.56993 19.1605L5.75129 19.3539L3.58546 19.8652L4.11402 17.9014L4.35252 17.0204L3.89701 16.2297C3.12914 14.9008 2.72275 13.3813 2.72385 11.8379C2.72605 6.99522 6.66804 3.05422 11.5118 3.05422ZM7.62491 6.76708C7.4412 6.76708 7.14415 6.83584 6.89222 7.11086C6.6403 7.38479 5.92963 8.04824 5.92963 9.39917C5.92963 10.7501 6.91371 12.056 7.05122 12.2397C7.18764 12.4223 8.95075 15.2822 11.7417 16.3823C14.0607 17.2965 14.5317 17.116 15.0356 17.0698C15.5394 17.0247 16.6611 16.407 16.8899 15.7656C17.1187 15.1243 17.1192 14.5725 17.051 14.4592C16.9828 14.3448 16.7996 14.2766 16.5246 14.1391C16.2507 14.0016 14.9008 13.3387 14.6488 13.2474C14.3969 13.1561 14.2126 13.1099 14.03 13.3849C13.8474 13.6599 13.3226 14.2766 13.162 14.4592C13.0014 14.643 12.8418 14.6677 12.5668 14.5301C12.2918 14.3915 11.4075 14.1008 10.358 13.1658C9.54171 12.4386 8.99092 11.5414 8.8303 11.2663C8.67079 10.9924 8.81526 10.842 8.95278 10.7056C9.07599 10.5823 9.22565 10.3849 9.36317 10.2243C9.49958 10.0636 9.54689 9.94921 9.6382 9.76659C9.7295 9.58397 9.68277 9.42281 9.61456 9.2853C9.54635 9.14778 9.01222 7.79183 8.76799 7.24838C8.56227 6.79183 8.345 6.78123 8.14918 6.77353C7.98967 6.76693 7.80753 6.76708 7.62491 6.76708Z" fill="#128C7E"/>
</g>
<defs>
<clipPath id="clip0_10574_24610">
<rect width="22" height="22" fill="white" transform="translate(0.5 0.854004)"/>
</clipPath>
</defs>
</svg>
